<?xml version="1.0" encoding="utf-8"?>
<!-- Generator: Adobe Illustrator 21.1.0, SVG Export Plug-In . SVG Version: 6.00 Build 0)  -->
<svg version="1.1" id="Layer_1" xmlns="http://www.w3.org/2000/svg" xmlns:xlink="http://www.w3.org/1999/xlink" x="0px" y="0px"
	 viewBox="0 0 244.5 188.4" style="enable-background:new 0 0 244.5 188.4;" xml:space="preserve">
<style type="text/css">
	.st0{fill:#FFFFFF;}
	.st1{fill:#C80000;}
</style>
<title>Artboard 1</title>
<path class="st0" d="M232,137.8V50.7h12.5V0h-28.6c-14,0-29,0-44.2,0c-2,0-4,1-5,2.7c-12.9,18.2-26.1,36.6-38.8,54.5l-5.5,7.8
	l-6.5-9.1C103.3,38.5,90.5,20.5,78,2.9c-1.2-1.9-3.4-3-5.6-2.9c-14.7,0-29.5,0-42,0H0v50.8h12.4v86.9H0v50.6h93.9v-50.6H81.4v-24.2
	l19.1,26.5l19.3,26.9l2.4,3.4l2.4-3.4l21.4-29.8l17-23.6v24.3h-12.5v50.6h93.9v-50.6H232z M233.9,177.7h-72.8v-29.4h12.4V80.8
	l-5.4,7.6L147.5,117l-25.3,35.2l-19.7-27.5L76.4,88.4l-5.4-7.6v67.4h12.3v29.4H10.5v-29.3h12.4V40.2H10.6V10.6h23.9v0
	c10.5,0,22.9,0,35.4,0c0.6,0,0.6,0,1,0.6C84.3,30,98,49.2,111.2,67.7l7.5,10.6c0.2,0.3,0.4,0.5,0.7,0.9l0.4,0.5l2.4,3.2l2.4-3.2
	l0.5-0.6c0.3-0.4,0.6-0.8,0.9-1.2l8-11.3c13-18.2,26.5-37.1,39.7-55.6c0.1-0.1,0.2-0.2,0.3-0.2c14.1-0.1,28.1-0.1,39.9-0.1h20v29.5
	h-12.4v108.2h12.4V177.7z"/>
<g id="Layer_3">
	<path class="st1" d="M122.2,157.3L73.9,90.1v55.1h12.3v35.4H7.5v-35.3h12.4V43.2H7.6V7.6h2.3c20,0,40,0,60,0
		c1.4-0.1,2.7,0.6,3.5,1.8c15.9,22.4,31.8,44.8,47.8,67.1c0.3,0.4,0.6,0.8,1,1.4c0.5-0.7,0.9-1.2,1.4-1.8
		c15.9-22.3,31.8-44.6,47.8-66.9c0.6-0.8,1.5-1.4,2.5-1.5c20.6-0.1,41.3-0.1,61.9-0.1c0.3,0,0.7,0.1,1.2,0.1v35.4h-12.4v102.2h12.4
		v35.5h-78.8v-35.4h12.4V90.1L122.2,157.3z"/>
</g>
</svg>
